<svg width="235" height="31" viewBox="0 0 235 31" fill="none" xmlns="http://www.w3.org/2000/svg">
<g clip-path="url(#clip0)">
<path d="M22.09 17.293H26.57L25.57 22.523H21.128L19.793 29.681H13.846L15.219 22.523H10.304L8.97 29.681H3.022L4.39499 22.523H-0.00500488L0.956995 17.29H5.39599L6.03899 13.814H1.606L2.693 8.58101H7.04499L8.613 0.374008H14.43L12.905 8.58101H17.857L19.425 0.374008H25.242L23.717 8.58101H28.199L27.193 13.814H22.755L22.09 17.293ZM16.87 13.813H11.921L11.278 17.289H16.192L16.87 13.813Z" fill="#0C65E5"/>
<path d="M56.902 21.225C56.902 25.409 54.139 29.681 46.938 29.681H34.379V0.373001H46.397C53.014 0.373001 55.609 4.433 55.609 8.073C55.609 10.587 54.393 13.56 52.387 14.225C55.101 15.154 56.902 17.83 56.902 21.225V21.225ZM46.102 5.73H40.659V12.137L46.1 12.093C46.5247 12.1267 46.9518 12.0692 47.3525 11.9244C47.7532 11.7795 48.1184 11.5508 48.4235 11.2533C48.7286 10.9559 48.9666 10.5967 49.1215 10.1998C49.2765 9.80291 49.3448 9.37747 49.322 8.952C49.339 8.52436 49.2674 8.09782 49.1115 7.69925C48.9556 7.30068 48.7188 6.93872 48.4162 6.63614C48.1135 6.33356 47.7514 6.09692 47.3528 5.94115C46.9542 5.78537 46.5276 5.71382 46.1 5.731L46.102 5.73ZM46.94 24.322C49.157 24.322 50.622 22.981 50.622 20.932C50.6237 20.4574 50.528 19.9875 50.3409 19.5514C50.1538 19.1152 49.8792 18.7221 49.5341 18.3963C49.189 18.0705 48.7807 17.819 48.3345 17.6572C47.8883 17.4955 47.4137 17.427 46.94 17.456H40.659V24.322H46.94Z" fill="#0C65E5"/>
<path d="M67.366 5.731V12.386H76.666V17.744H67.366V24.318H80.266V29.676H61.086V0.368011H79.803V5.72601H67.366V5.731Z" fill="#0C65E5"/>
<path d="M100.985 4.72501L95.876 7.57401C95.6112 6.91466 95.1539 6.35042 94.5636 5.95493C93.9733 5.55944 93.2775 5.35108 92.567 5.35702C92.2423 5.34134 91.9179 5.39522 91.6157 5.51507C91.3135 5.63491 91.0404 5.81793 90.8147 6.0519C90.5889 6.28587 90.4158 6.56537 90.3069 6.87168C90.1979 7.17799 90.1557 7.50405 90.183 7.82801C90.183 12.267 102.115 12.31 102.115 21.603C102.115 26.669 98.558 30.021 93.238 30.021C88.924 30.021 84.318 27.258 82.771 23.321L87.88 20.558C88.842 22.607 90.935 24.658 93.113 24.658C94.746 24.658 95.832 22.982 95.832 21.474C95.832 17.414 83.9 16.489 83.9 7.991C83.9 3.174 87.333 -0.00899686 92.523 -0.00899686C94.2339 -0.0830986 95.9316 0.3205 97.4261 1.15659C98.9206 1.99268 100.153 3.22827 100.985 4.72501V4.72501Z" fill="#0C65E5"/>
<path d="M117.734 5.731V29.681H111.452V5.731H103.791V0.373001H125.438V5.731H117.734Z" fill="#0C65E5"/>
<path d="M146.362 29.681L138.615 17.706H136.101V29.681H129.822V0.373001H141.84C147.365 0.373001 151.052 3.849 151.052 9.039C151.059 10.9442 150.422 12.7957 149.244 14.2933C148.066 15.7908 146.417 16.8465 144.564 17.289L152.938 29.68L146.362 29.681ZM141.842 12.348C144.142 12.348 145.691 11.007 145.691 9.039C145.691 7.071 144.139 5.73 141.842 5.73H136.106V12.347H141.842V12.348Z" fill="#0C65E5"/>
<path d="M163.406 5.731V12.386H172.699V17.744H163.406V24.318H176.3V29.676H157.124V0.368011H175.841V5.72601H163.406V5.731Z" fill="#0C65E5"/>
<path d="M198.532 23.318C196.845 24.0315 195.042 24.4291 193.212 24.491C191.415 24.4224 189.644 24.04 187.979 23.361L185.887 29.681H179.231L189.865 0.373001H196.65L207.281 29.681H200.581L198.532 23.318ZM196.856 18.166L193.256 7.153L189.656 18.209C190.756 18.7823 191.973 19.0966 193.213 19.128C194.485 19.0876 195.73 18.7583 196.856 18.165V18.166Z" fill="#0C65E5"/>
<path d="M218.627 0.373001C229.807 0.373001 234.495 5.693 234.451 15.067C234.408 24.485 229.802 29.68 218.627 29.68H210.209V0.373001H218.627ZM218.714 5.731H216.497V24.323H218.465C226.045 24.323 228.094 20.933 228.18 15.073C228.259 9.25 226.159 5.731 218.713 5.731H218.714Z" fill="#0C65E5"/>
</g>
<defs>
<clipPath id="clip0">
<rect width="234.451" height="30.021" fill="white"/>
</clipPath>
</defs>
</svg>
