<svg xmlns="http://www.w3.org/2000/svg" id="logo-ufuture" width="220.76" height="51.948" viewBox="0 0 220.76 51.948">
    <defs>
        <style>
            .cls-1{fill:#00a7d6}.cls-2{fill:#fff}
        </style>
    </defs>
    <path id="Path_54" d="M193.776 31.6a.493.493 0 0 1 .542.542v3.205a.493.493 0 0 1-.542.542h-11.489v4.043h10.4a.493.493 0 0 1 .542.542v3.156a.493.493 0 0 1-.542.542h-10.4v8.038a.493.493 0 0 1-.542.542h-3.4a.493.493 0 0 1-.542-.542V32.142a.493.493 0 0 1 .542-.542z" class="cls-1" data-name="Path 54" transform="translate(-89.881 -16.095)"/>
    <path id="Path_55" d="M221.5 32.142a.493.493 0 0 1 .542-.542h3.4a.493.493 0 0 1 .542.542v11.243c0 3.156 1.726 5.375 4.98 5.375 3.156 0 5.03-2.12 5.03-5.375V32.142a.493.493 0 0 1 .542-.542h3.4a.493.493 0 0 1 .542.542v11.292c0 5.473-3.649 9.615-9.517 9.615-5.819 0-9.467-4.142-9.467-9.615V32.142z" class="cls-1" data-name="Path 55" transform="translate(-112.032 -16.095)"/>
    <path id="Path_56" d="M286.84 31.6a.493.493 0 0 1 .542.542v3.205a.493.493 0 0 1-.542.542h-6.755v16.323a.493.493 0 0 1-.542.542h-3.4a.493.493 0 0 1-.542-.542V35.89h-6.755a.493.493 0 0 1-.542-.542v-3.206a.493.493 0 0 1 .542-.542z" class="cls-1" data-name="Path 56" transform="translate(-135.755 -16.095)"/>
    <path id="Path_57" d="M315.3 32.142a.493.493 0 0 1 .542-.542h3.4a.493.493 0 0 1 .542.542v11.243c0 3.156 1.726 5.375 4.98 5.375 3.156 0 5.03-2.12 5.03-5.375V32.142a.493.493 0 0 1 .542-.542h3.4a.493.493 0 0 1 .542.542v11.292c0 5.473-3.649 9.615-9.517 9.615-5.819 0-9.467-4.142-9.467-9.615V32.142z" class="cls-1" data-name="Path 57" transform="translate(-159.579 -16.095)"/>
    <path id="Path_58" d="M375.259 31.6c4.684 0 8.284 3.353 8.284 7.742A7.421 7.421 0 0 1 379.8 45.8l3.353 6.41a.358.358 0 0 1-.345.542h-3.8a.7.7 0 0 1-.69-.394l-2.564-5.276a3.273 3.273 0 0 1-.641.049h-5.424v5.079a.493.493 0 0 1-.542.542h-3.4a.493.493 0 0 1-.542-.542V32.142a.493.493 0 0 1 .542-.542zm0 11.243c2.465 0 3.8-1.529 3.8-3.55 0-1.972-1.381-3.452-3.8-3.452h-5.572v7z" class="cls-1" data-name="Path 58" transform="translate(-184.874 -16.095)"/>
    <path id="Path_59" d="M429.372 31.6a.493.493 0 0 1 .542.542v3.107a.493.493 0 0 1-.542.542h-11.735v3.945h10.306a.493.493 0 0 1 .542.542v3.107a.493.493 0 0 1-.542.542h-10.306v4.586h11.736c.345 0 .542.148.542.493v3.205c0 .345-.148.493-.493.493h-15.78a.493.493 0 0 1-.542-.542v-20.02a.583.583 0 0 1 .542-.542z" class="cls-1" data-name="Path 59" transform="translate(-209.154 -16.095)"/>
    <path id="Path_60" d="M-.5 19.014C-.5 28.876 2.212 52.4 15.969 52.1c11.831-.246 30.868-15.433 33.876-27.021C52.9 13.343 35.546 6.045 26.867 3.185 21.344 1.361 13.06-1.2 7.39 1.016.486 3.728-.451 12.5-.5 19.014z" class="cls-1" data-name="Path 60" transform="translate(.5 -.155)"/>
    <path id="Path_61" d="M127.5 32.142a.493.493 0 0 1 .542-.542h3.4a.493.493 0 0 1 .542.542v11.243c0 3.156 1.726 5.375 4.98 5.375 3.156 0 5.03-2.12 5.03-5.375V32.142a.493.493 0 0 1 .542-.542h3.4a.493.493 0 0 1 .542.542v11.292c0 5.473-3.649 9.615-9.517 9.615-5.819 0-9.467-4.142-9.467-9.615V32.142z" class="cls-1" data-name="Path 61" transform="translate(-64.383 -16.095)"/>
    <g id="Group_60" data-name="Group 60" transform="translate(13.018 15.505)">
        <path id="Path_62" d="M25.9 32.192a.646.646 0 0 1 .641-.592h4.142a.646.646 0 0 1 .641.592v12.229a3.888 3.888 0 0 0 4.142 3.8 3.932 3.932 0 0 0 4.191-3.8V32.192a.612.612 0 0 1 .643-.592h4.142a.646.646 0 0 1 .641.592v12.475c0 4.586-4.29 8.383-9.615 8.383-5.276 0-9.517-3.8-9.517-8.383V32.192z" class="cls-2" data-name="Path 62" transform="translate(-25.9 -31.6)"/>
    </g>
</svg>
