<svg width="160" height="41" viewBox="0 0 160 41" fill="none" xmlns="http://www.w3.org/2000/svg">
<path d="M26.493 4.60672V0.799988H0.899994V40.8H26.493V37.0518H4.64816V4.60672H26.493Z" fill="#020203"/>
<path d="M45.1167 20.1265C44.531 19.658 43.8868 19.248 43.1255 18.8381C45.9366 16.6126 46.6394 13.6258 46.6394 11.166C46.6394 7.71068 45.4681 5.07524 43.1255 3.31829C41.0171 1.67846 38.0889 0.858553 34.2236 0.799988V4.60672C38.3817 4.66529 42.8912 5.60233 42.8912 11.166C42.8912 13.2744 42.3055 16.1441 37.3861 17.4911L34.2821 18.311V20.6536L37.6203 21.1807C40.7243 21.6492 42.1299 22.4105 42.7741 22.9962C44.1211 24.1089 44.7653 25.8073 44.7653 28.2085C44.7653 30.2583 44.2382 31.9567 43.1255 33.3036C41.8956 34.7678 40.3729 35.7048 38.4402 36.1733C37.2104 36.4662 35.8048 36.7004 34.3407 36.8176V40.6243C36.1562 40.5072 37.796 40.2143 39.3773 39.8629C42.1298 39.2187 44.3553 37.8132 46.1123 35.7048C47.8107 33.655 48.6306 31.1367 48.6306 28.2085C48.4549 24.6946 47.3421 22.0006 45.1167 20.1265Z" fill="#020203"/>
<path d="M61.9249 23.8161V25.6902C62.3348 25.6902 62.6862 25.7488 63.0376 25.8073C63.389 25.8659 63.6818 25.983 63.9161 26.1587C64.2089 26.3344 64.3846 26.5687 64.5603 26.8615C64.736 27.1543 64.7946 27.5057 64.7946 27.9157C64.7946 28.3256 64.736 28.677 64.5603 28.9698C64.3846 29.2627 64.2089 29.4969 63.9161 29.6726C63.6233 29.8483 63.3304 29.9654 63.0376 30.024C62.6862 30.0826 62.3348 30.1411 61.9249 30.1411V31.781H61.3392V30.1411C60.9293 30.1411 60.5779 30.0826 60.2265 30.024C59.8751 29.9654 59.5823 29.8483 59.348 29.6726C59.0552 29.4969 58.8795 29.2627 58.7038 28.9698C58.5281 28.677 58.4695 28.3256 58.4695 27.9157C58.4695 27.5057 58.5281 27.1543 58.7038 26.8615C58.8795 26.5687 59.0552 26.3344 59.348 26.1587C59.6408 25.983 59.9337 25.8659 60.2265 25.8073C60.5779 25.7488 60.9293 25.6902 61.3392 25.6902V23.8161H61.9249ZM61.3392 29.6141V26.2173C60.5193 26.2758 59.9337 26.393 59.6408 26.6858C59.2894 26.9786 59.1723 27.3886 59.1723 27.9157C59.1723 28.4427 59.348 28.8527 59.6408 29.1455C59.9922 29.3798 60.5779 29.5555 61.3392 29.6141ZM61.9249 26.1587V29.6141C62.7448 29.5555 63.3304 29.4384 63.6233 29.1455C63.9747 28.8527 64.0918 28.4427 64.0918 27.9742C64.0918 27.4471 63.9161 27.0372 63.6233 26.7444C63.3304 26.393 62.7448 26.2173 61.9249 26.1587Z" fill="#020203"/>
<path d="M65.673 27.9157C65.673 27.6228 65.7316 27.3886 65.7902 27.0958C65.9073 26.8615 66.0244 26.6272 66.1416 26.5101C66.3173 26.3344 66.4344 26.2173 66.5515 26.1001C66.6687 25.983 66.7858 25.9244 66.9615 25.8659C67.3714 25.6316 67.8985 25.5731 68.4842 25.5731C69.2455 25.5731 69.8897 25.7488 70.3583 26.1587C70.6511 26.393 70.8854 26.6858 71.0025 27.0372C71.1196 27.3886 71.1782 27.6814 71.1782 27.9157C71.1782 28.3842 71.061 28.7356 70.8268 29.087C70.6511 29.3798 70.2997 29.6141 69.9483 29.8483C69.5384 30.0826 69.0698 30.1997 68.4256 30.1997C68.1913 30.1997 67.9571 30.1997 67.7228 30.1411C66.9615 30.024 66.4344 29.6726 66.083 29.1455C65.7902 28.7941 65.673 28.3256 65.673 27.9157ZM70.534 27.9157C70.534 27.33 70.3583 26.9201 69.9483 26.5687C69.5384 26.2173 69.0698 26.1001 68.4842 26.1001C67.9571 26.1001 67.5471 26.2173 67.1372 26.4515C66.6101 26.8029 66.3758 27.2714 66.3758 27.9157C66.3758 28.3256 66.493 28.7356 66.7272 29.0284C66.9029 29.2627 67.1372 29.4384 67.4886 29.5555C67.7814 29.6726 68.1328 29.7312 68.4256 29.7312C69.187 29.7312 69.7726 29.4969 70.124 29.087C70.3583 28.7356 70.534 28.3256 70.534 27.9157Z" fill="#020203"/>
<path d="M72.8766 25.6902V26.393C73.0523 26.2173 73.2279 26.0416 73.4036 25.9244C73.6379 25.8073 73.8136 25.7488 74.0479 25.6902C74.2821 25.6316 74.4578 25.6316 74.5749 25.5731C74.6921 25.5731 74.8092 25.5731 74.9263 25.5731C75.3949 25.5731 75.8634 25.6902 76.2148 25.8659C76.6247 26.0416 76.9176 26.3344 77.1518 26.7444C77.3275 27.0958 77.4446 27.4471 77.4446 27.8571C77.4446 28.5013 77.2104 29.0284 76.8004 29.4969C76.3319 29.9654 75.6877 30.1997 74.8092 30.1997C74.5164 30.1997 74.2236 30.1411 73.9307 30.0826C73.6379 30.024 73.4036 29.9069 73.2865 29.7898C73.1108 29.6726 72.9937 29.5555 72.8766 29.4384V31.781H72.2909V25.6902H72.8766ZM76.859 27.8571C76.859 27.5643 76.8004 27.33 76.6833 27.0958C76.3905 26.4515 75.8048 26.1001 74.8678 26.1001C74.165 26.1001 73.6965 26.2758 73.3451 26.6272C73.0523 26.9786 72.8766 27.3886 72.8766 27.9157C72.8766 28.4428 72.9937 28.8527 73.2865 29.087C73.6379 29.4384 74.165 29.6141 74.8092 29.6141C75.6291 29.6141 76.1562 29.3798 76.5076 28.9698C76.7419 28.677 76.859 28.3256 76.859 27.8571Z" fill="#020203"/>
<path d="M83.7697 30.0825H83.2426V26.2172L81.4856 30.0825H81.0171L79.2016 26.2758V30.0825H78.6745V25.6901H79.553L81.2514 29.4969L82.8912 25.6901H83.7697V30.0825Z" fill="#020203"/>
<path d="M88.8648 25.6901H89.5091L87.4593 30.3753C87.3421 30.6096 87.2836 30.7853 87.225 30.8439C87.1665 30.961 87.1079 31.0781 87.0493 31.1367C86.9908 31.2538 86.8736 31.3124 86.8151 31.4295C86.5808 31.6052 86.1708 31.7223 85.5852 31.7223C85.2924 31.7223 84.9995 31.6638 84.7067 31.6052V31.0781C84.9995 31.1952 85.2924 31.2538 85.5852 31.2538C85.8195 31.2538 85.9951 31.2538 86.1708 31.1952C86.3465 31.1367 86.4637 31.0781 86.5808 30.961C86.6979 30.8439 86.7565 30.7267 86.8151 30.6682C86.8736 30.551 86.9322 30.4339 86.9908 30.3168L84.6481 25.6901H85.3509L87.2836 29.6726L88.8648 25.6901Z" fill="#020203"/>
<path d="M93.4915 27.5057V27.9742H90.5632C90.5632 28.3842 90.6804 28.677 90.9146 28.9698C91.1489 29.2041 91.3831 29.4384 91.676 29.4969C91.9688 29.6141 92.2616 29.6726 92.613 29.6726C92.9058 29.6726 93.1987 29.6141 93.4915 29.4969C93.7843 29.3798 94.0186 29.2627 94.2528 29.087C94.4285 28.9113 94.5457 28.677 94.7214 28.3842L95.307 28.6184C95.0727 29.0284 94.8385 29.2627 94.6628 29.4969C94.1357 29.9654 93.4329 30.1997 92.5544 30.1997C92.203 30.1997 91.8517 30.1411 91.5588 30.0826C91.3831 30.024 91.266 29.9654 91.0903 29.9069C90.9146 29.8483 90.7389 29.6726 90.5632 29.5555C90.3875 29.3798 90.2118 29.1455 90.0947 28.9113C89.9776 28.6184 89.919 28.3256 89.919 27.9742C89.919 27.3886 90.0947 26.8615 90.5047 26.4515C90.7389 26.1587 91.0903 25.983 91.4417 25.8073C91.8517 25.6902 92.2031 25.5731 92.613 25.5731C93.7257 25.5731 94.6042 26.0416 95.1899 26.9786L94.6042 27.2129C94.5457 27.0958 94.4285 26.9786 94.3114 26.8029C94.1357 26.6272 94.0186 26.5101 93.8429 26.393C93.4915 26.1587 93.0815 26.0416 92.613 26.0416C92.1445 26.0416 91.7931 26.1001 91.5003 26.2758C91.2074 26.4515 90.9732 26.6272 90.8561 26.9201C90.7389 27.0958 90.6804 27.2715 90.6218 27.5057H93.4915V27.5057Z" fill="#020203"/>
<path d="M98.8209 27.9157C98.8209 27.6228 98.8795 27.3886 98.9381 27.0958C99.0552 26.8615 99.1723 26.6272 99.2894 26.5101C99.4651 26.3344 99.5823 26.2173 99.6994 26.1001C99.8165 25.983 99.9337 25.9244 100.109 25.8659C100.519 25.6316 101.046 25.5731 101.632 25.5731C102.393 25.5731 103.038 25.7488 103.506 26.1587C103.799 26.393 104.033 26.6858 104.15 27.0372C104.267 27.3886 104.326 27.6814 104.326 27.9157C104.326 28.3842 104.209 28.7356 103.975 29.087C103.799 29.3798 103.448 29.6141 103.096 29.8483C102.686 30.0826 102.218 30.1997 101.573 30.1997C101.339 30.1997 101.105 30.1997 100.871 30.1411C100.109 30.024 99.5823 29.6726 99.2309 29.1455C98.9381 28.7941 98.8209 28.3256 98.8209 27.9157ZM103.682 27.9157C103.682 27.33 103.506 26.9201 103.096 26.5687C102.686 26.2173 102.218 26.1001 101.632 26.1001C101.105 26.1001 100.695 26.2173 100.285 26.4515C99.758 26.8029 99.5237 27.2714 99.5237 27.9157C99.5237 28.3256 99.6408 28.7356 99.8751 29.0284C100.051 29.2627 100.285 29.4384 100.636 29.5555C100.929 29.6726 101.281 29.7312 101.573 29.7312C102.335 29.7312 102.92 29.4969 103.272 29.087C103.565 28.7356 103.682 28.3256 103.682 27.9157Z" fill="#020203"/>
<path d="M109.948 28.3842L110.534 28.6184C110.3 29.0284 110.065 29.2627 109.89 29.4969C109.363 29.9654 108.66 30.1997 107.781 30.1997C107.43 30.1997 107.079 30.1411 106.786 30.0826C106.61 30.024 106.493 29.9654 106.317 29.9069C106.142 29.8483 105.966 29.6726 105.79 29.5555C105.614 29.3798 105.439 29.1455 105.322 28.9113C105.205 28.6184 105.146 28.3256 105.146 27.9742C105.146 27.3886 105.322 26.8615 105.732 26.4515C105.966 26.1587 106.317 25.983 106.669 25.8073C107.079 25.6902 107.43 25.5731 107.84 25.5731C109.011 25.5731 109.831 26.0416 110.417 26.9786L109.831 27.2129C109.773 27.0958 109.655 26.9786 109.538 26.8029C109.363 26.6272 109.246 26.5101 109.07 26.393C108.718 26.1587 108.308 26.1001 107.84 26.1001C107.371 26.1001 107.02 26.1587 106.727 26.3344C106.434 26.5101 106.2 26.7444 106.083 26.9786C105.907 27.2714 105.849 27.5643 105.849 27.9157C105.849 28.5013 106.083 28.9698 106.493 29.2627C106.903 29.5555 107.371 29.7312 107.899 29.7312C108.191 29.7312 108.484 29.6726 108.777 29.5555C109.07 29.4384 109.304 29.3212 109.538 29.087C109.655 28.9113 109.831 28.677 109.948 28.3842Z" fill="#020203"/>
<path d="M111.178 27.9157C111.178 27.6228 111.237 27.3886 111.295 27.0958C111.412 26.8615 111.53 26.6272 111.647 26.5101C111.822 26.3344 111.94 26.2173 112.057 26.1001C112.174 25.983 112.291 25.9244 112.467 25.8659C112.877 25.6316 113.404 25.5731 113.989 25.5731C114.751 25.5731 115.395 25.7488 115.863 26.1587C116.156 26.393 116.39 26.6858 116.508 27.0372C116.625 27.3886 116.683 27.6814 116.683 27.9157C116.683 28.3842 116.566 28.7356 116.332 29.087C116.156 29.3798 115.805 29.6141 115.453 29.8483C115.043 30.0826 114.575 30.1997 113.931 30.1997C113.696 30.1997 113.462 30.1997 113.228 30.1411C112.467 30.024 111.94 29.6726 111.588 29.1455C111.295 28.7941 111.178 28.3256 111.178 27.9157ZM116.039 27.9157C116.039 27.33 115.863 26.9201 115.453 26.5687C115.043 26.2173 114.575 26.1001 113.989 26.1001C113.462 26.1001 113.052 26.2173 112.642 26.4515C112.115 26.8029 111.881 27.2714 111.881 27.9157C111.881 28.3256 111.998 28.7356 112.232 29.0284C112.408 29.2627 112.642 29.4384 112.994 29.5555C113.287 29.6726 113.638 29.7312 113.931 29.7312C114.692 29.7312 115.278 29.4969 115.629 29.087C115.922 28.7356 116.039 28.3256 116.039 27.9157Z" fill="#020203"/>
<path d="M122.071 23.5818H122.657C122.657 24.3431 122.071 24.6945 120.841 24.6945C120.021 24.6945 119.377 24.8702 118.967 25.163C118.557 25.5144 118.265 26.0415 118.206 26.7443C118.382 26.3929 118.675 26.1587 119.143 25.983C119.553 25.8073 120.022 25.6901 120.49 25.6901C121.31 25.6901 121.954 25.8658 122.423 26.2172C122.95 26.5686 123.184 27.1543 123.184 27.857C123.184 28.4427 123.008 28.9112 122.598 29.3797C122.071 29.9068 121.368 30.1997 120.431 30.1997C119.553 30.1997 118.909 29.9654 118.382 29.5554C117.913 29.1455 117.679 28.5013 117.679 27.6228C117.679 27.0957 117.737 26.6272 117.796 26.2172C117.913 25.8073 118.03 25.5144 118.206 25.2216C118.382 24.9874 118.616 24.7531 118.909 24.5774C119.202 24.4017 119.494 24.2846 119.846 24.226C120.197 24.1674 120.607 24.1089 121.076 24.0503C121.251 24.0503 121.368 24.0503 121.486 23.9917C121.603 23.9917 121.72 23.9332 121.837 23.9332C121.954 23.8746 122.071 23.8746 122.13 23.7575C122.013 23.7575 122.071 23.6404 122.071 23.5818ZM122.423 27.9156C122.423 27.3885 122.247 26.92 121.896 26.6272C121.544 26.3344 121.076 26.1587 120.49 26.1587C120.197 26.1587 119.904 26.2172 119.612 26.2758C119.319 26.3344 119.143 26.4515 118.967 26.51C118.499 26.8614 118.265 27.33 118.265 27.857C118.265 28.267 118.382 28.677 118.616 28.9698C118.792 29.204 119.026 29.3797 119.377 29.4969C119.67 29.614 120.022 29.6726 120.314 29.6726C121.076 29.6726 121.661 29.4383 122.013 29.0283C122.247 28.7941 122.423 28.3841 122.423 27.9156Z" fill="#020203"/>
<path d="M129.216 30.0825H128.631V26.7443L124.765 29.5554V30.0825H124.18V25.6901H124.765V28.9112L128.631 26.1001V25.6901H129.216V30.0825Z" fill="#020203"/>
<path d="M135.073 28.3842L135.658 28.6184C135.424 29.0284 135.19 29.2627 135.014 29.4969C134.487 29.9654 133.784 30.1997 132.906 30.1997C132.554 30.1997 132.203 30.1411 131.91 30.0826C131.735 30.024 131.617 29.9654 131.442 29.9069C131.266 29.8483 131.09 29.6726 130.915 29.5555C130.739 29.3798 130.563 29.1455 130.446 28.9113C130.329 28.6184 130.27 28.3256 130.27 27.9742C130.27 27.3886 130.446 26.8615 130.856 26.4515C131.09 26.1587 131.442 25.983 131.793 25.8073C132.203 25.6902 132.554 25.5731 132.964 25.5731C134.136 25.5731 134.956 26.0416 135.541 26.9786L134.956 27.2129C134.897 27.0958 134.78 26.9786 134.663 26.8029C134.487 26.6272 134.37 26.5101 134.194 26.393C133.843 26.1587 133.433 26.1001 132.964 26.1001C132.496 26.1001 132.144 26.1587 131.852 26.3344C131.559 26.5101 131.325 26.7444 131.207 26.9786C131.032 27.2714 130.973 27.5643 130.973 27.9157C130.973 28.5013 131.207 28.9698 131.617 29.2627C132.027 29.5555 132.496 29.7312 133.023 29.7312C133.316 29.7312 133.609 29.6726 133.901 29.5555C134.194 29.4384 134.429 29.3212 134.663 29.087C134.78 28.9113 134.897 28.677 135.073 28.3842Z" fill="#020203"/>
<path d="M140.754 26.1586H138.645V30.0825H138.06V26.1586H135.951V25.6901H140.695V26.1586H140.754Z" fill="#020203"/>
<path d="M142.159 24.9288H141.573V24.0504H142.159V24.9288ZM142.159 30.0826H141.573V25.6902H142.159V30.0826Z" fill="#020203"/>
<path d="M148.074 28.3842L148.66 28.6184C148.426 29.0284 148.191 29.2627 148.016 29.4969C147.489 29.9654 146.786 30.1997 145.907 30.1997C145.556 30.1997 145.205 30.1411 144.912 30.0826C144.736 30.024 144.619 29.9654 144.443 29.9069C144.267 29.8483 144.092 29.6726 143.916 29.5555C143.74 29.3798 143.565 29.1455 143.448 28.9113C143.33 28.6184 143.272 28.3256 143.272 27.9742C143.272 27.3886 143.448 26.8615 143.858 26.4515C144.092 26.1587 144.443 25.983 144.795 25.8073C145.205 25.6902 145.556 25.5731 145.966 25.5731C147.137 25.5731 147.957 26.0416 148.543 26.9786L147.957 27.2129C147.899 27.0958 147.781 26.9786 147.664 26.8029C147.489 26.6272 147.371 26.5101 147.196 26.393C146.844 26.1587 146.434 26.1001 145.966 26.1001C145.497 26.1001 145.146 26.1587 144.853 26.3344C144.56 26.5101 144.326 26.7444 144.209 26.9786C144.033 27.2714 143.975 27.5643 143.975 27.9157C143.975 28.5013 144.209 28.9698 144.619 29.2627C145.029 29.5555 145.497 29.7312 146.024 29.7312C146.317 29.7312 146.61 29.6726 146.903 29.5555C147.196 29.4384 147.43 29.3212 147.664 29.087C147.723 28.9113 147.899 28.677 148.074 28.3842Z" fill="#020203"/>
<path d="M153.755 26.1586H151.647V30.0825H151.061V26.1586H148.953V25.6901H153.696V26.1586H153.755Z" fill="#020203"/>
<path d="M154.575 30.0825V25.6901H155.161V27.4471H157.035C157.328 27.4471 157.562 27.4471 157.737 27.4471C157.913 27.4471 158.147 27.5056 158.323 27.5642C158.557 27.6228 158.675 27.6813 158.792 27.7985C158.909 27.9156 159.026 28.0327 159.084 28.2084C159.143 28.3841 159.202 28.5598 159.202 28.7941C159.202 29.204 159.084 29.5554 158.85 29.7897C158.616 30.0239 158.265 30.1411 157.855 30.1411H154.575V30.0825ZM155.161 29.614H157.328C157.503 29.614 157.679 29.614 157.796 29.614C157.913 29.614 158.03 29.614 158.147 29.5554C158.265 29.4969 158.382 29.4969 158.44 29.4383C158.499 29.3797 158.557 29.3212 158.616 29.204C158.675 29.0869 158.674 28.9698 158.674 28.7941C158.674 28.5012 158.557 28.267 158.323 28.1499C158.089 28.0327 157.737 27.9742 157.269 27.9742H155.161V29.614Z" fill="#020203"/>
<path d="M58.6452 10.2289H66.8443C68.8356 10.2289 69.7726 10.9903 69.7726 12.513C69.7726 13.6257 69.1284 14.3871 67.8985 14.6799C68.6599 14.797 69.187 14.9727 69.5383 15.2655C70.0069 15.6755 70.2411 16.2612 70.2411 17.0225C70.2411 17.6667 70.0654 18.2524 69.6555 18.7209C69.2455 19.1894 68.777 19.4822 68.1328 19.6579C67.4886 19.8336 66.7858 19.8922 65.9659 19.8922H58.5281V10.2289H58.6452ZM62.1006 16.0269V17.7253H65.7316C66.493 17.7253 66.8443 17.4325 66.8443 16.8468C66.8443 16.3197 66.5515 16.0269 65.9659 16.0269H62.1006ZM62.1006 13.9185H65.4973C66.1416 13.9185 66.4344 13.6843 66.4344 13.1572C66.4344 12.6887 66.1416 12.3959 65.5559 12.3959H62.042V13.9185H62.1006Z" fill="#020203"/>
<path d="M84.1796 15.0313C84.1796 16.8468 83.4769 18.1938 82.0713 19.1894C81.4856 19.5994 80.8414 19.8922 80.1386 20.0094C79.4359 20.1851 78.616 20.2436 77.7375 20.2436C76.0976 20.2436 74.7507 19.9508 73.6379 19.3066C73.1694 19.0138 72.7594 18.6624 72.408 18.311C72.0567 17.901 71.8224 17.5496 71.7053 17.1397C71.5881 16.7297 71.471 16.3783 71.4124 16.0855C71.3539 15.7927 71.3539 15.4998 71.3539 15.207C71.3539 14.6214 71.4124 14.0943 71.5296 13.6258C71.6467 13.1572 71.8224 12.6887 72.0566 12.3959C72.2909 12.0445 72.5252 11.7517 72.7009 11.576C72.9351 11.3417 73.1694 11.166 73.4036 10.9903C74.4578 10.2875 75.8634 9.93616 77.6789 9.93616C78.4988 9.93616 79.2016 9.99472 79.8458 10.1119C80.49 10.229 81.0171 10.4047 81.4271 10.6389C81.837 10.8732 82.1884 11.1075 82.4812 11.3417C82.7741 11.576 83.0083 11.8688 83.2426 12.1616C83.8868 12.9815 84.1796 13.9772 84.1796 15.0313ZM80.6072 15.0899C80.6072 14.7971 80.5486 14.4457 80.49 14.1528C80.4315 13.86 80.2558 13.5086 80.0801 13.2158C79.9044 12.8644 79.6116 12.6302 79.2016 12.3959C78.7916 12.1616 78.3231 12.1031 77.796 12.1031C76.859 12.1031 76.1562 12.3959 75.6291 12.9815C75.1606 13.5672 74.8678 14.27 74.8678 15.1485C74.8678 15.4998 74.9263 15.8512 75.0435 16.2026C75.1606 16.554 75.2777 16.8468 75.512 17.1397C75.7463 17.4325 76.0391 17.7253 76.449 17.901C76.859 18.0767 77.3275 18.1938 77.8546 18.1938C78.4403 18.1938 78.9088 18.0767 79.3187 17.901C79.7287 17.6668 80.0215 17.4325 80.1972 17.0811C80.3729 16.7297 80.49 16.4369 80.6072 16.1441C80.6072 15.6755 80.6072 15.3827 80.6072 15.0899Z" fill="#020203"/>
<path d="M98.1767 15.0313C98.1767 16.8468 97.4739 18.1938 96.0684 19.1894C95.4827 19.5994 94.8385 19.8922 94.1357 20.0094C93.4329 20.1851 92.613 20.2436 91.7345 20.2436C90.0947 20.2436 88.7477 19.9508 87.635 19.3066C87.1665 19.0138 86.7565 18.6624 86.4051 18.311C86.0537 17.901 85.8195 17.5496 85.7023 17.1397C85.5852 16.7297 85.4681 16.3783 85.4095 16.0855C85.3509 15.7927 85.3509 15.4998 85.3509 15.207C85.3509 14.6214 85.4095 14.0943 85.5266 13.6258C85.6438 13.1572 85.8195 12.6887 86.0537 12.3959C86.288 12.0445 86.5222 11.7517 86.6979 11.576C86.9322 11.3417 87.1665 11.166 87.4007 10.9903C88.4549 10.2875 89.8604 9.93616 91.676 9.93616C92.4959 9.93616 93.1987 9.99472 93.8429 10.1119C94.4871 10.229 95.0142 10.4047 95.4241 10.6389C95.8341 10.8732 96.1855 11.1075 96.4783 11.3417C96.7711 11.576 97.0054 11.8688 97.2397 12.1616C97.8839 12.9815 98.1767 13.9772 98.1767 15.0313ZM94.6042 15.0899C94.6042 14.7971 94.5457 14.4457 94.4871 14.1528C94.4285 13.86 94.2528 13.5086 94.0771 13.2158C93.9014 12.8644 93.6086 12.6302 93.1987 12.3959C92.7887 12.1616 92.3202 12.1031 91.7931 12.1031C90.8561 12.1031 90.1533 12.3959 89.6262 12.9815C89.1577 13.5672 88.8648 14.27 88.8648 15.1485C88.8648 15.4998 88.9234 15.8512 89.0405 16.2026C89.1577 16.554 89.2748 16.8468 89.5091 17.1397C89.7433 17.4325 90.0361 17.7253 90.4461 17.901C90.8561 18.0767 91.3246 18.1938 91.8517 18.1938C92.4373 18.1938 92.9058 18.0767 93.3158 17.901C93.7257 17.6668 94.0186 17.4325 94.1943 17.0811C94.37 16.7297 94.4871 16.4369 94.6042 16.1441C94.5457 15.6755 94.6042 15.3827 94.6042 15.0899Z" fill="#020203"/>
<path d="M110.768 19.8922H106.61L104.092 16.2612L102.862 17.4325V19.9508H99.6408V10.2289H102.862V13.86L106.083 10.2289H110.3L106.493 13.86L110.768 19.8922Z" fill="#020203"/>
<path d="M122.891 12.8644L119.67 13.45C119.202 12.513 118.382 12.0445 117.269 12.0445C116.332 12.0445 115.571 12.3373 115.043 12.923C114.516 13.45 114.282 14.1528 114.282 15.0899C114.282 15.8512 114.516 16.554 114.926 17.0811C115.453 17.7839 116.215 18.0767 117.152 18.0767C117.855 18.0767 118.382 17.901 118.85 17.6082C119.319 17.3153 119.612 16.9054 119.787 16.4369L123.067 16.7883C122.833 17.5496 122.481 18.1938 121.954 18.6623C120.9 19.7165 119.26 20.2436 117.035 20.2436C115.629 20.2436 114.399 20.0093 113.462 19.5408C113.228 19.4237 112.994 19.3066 112.818 19.1894C112.584 19.0723 112.349 18.838 112.057 18.6038C111.764 18.3695 111.53 18.0767 111.354 17.7253C111.178 17.4325 111.002 17.0225 110.827 16.554C110.71 16.0855 110.593 15.5584 110.593 15.0313C110.593 14.8556 110.593 14.6213 110.651 14.3871C110.651 14.1528 110.71 13.9186 110.827 13.5086C110.944 13.1572 111.061 12.8058 111.237 12.513C111.412 12.2202 111.647 11.8688 111.998 11.5174C112.349 11.166 112.701 10.8732 113.169 10.6389C113.579 10.4047 114.165 10.1704 114.868 9.9947C115.571 9.819 116.332 9.76044 117.152 9.76044C119.494 9.76044 121.134 10.2875 122.071 11.3417C122.481 11.8102 122.716 12.2787 122.891 12.8644Z" fill="#020203"/>
<path d="M135.424 19.8922H131.91V16.2026H127.694V19.8922H124.238V10.2289H127.752V13.7429H131.969V10.2289H135.483V19.8922H135.424Z" fill="#020203"/>
<path d="M147.957 19.8922H137.65V10.2289H147.84V12.3959H141.105V13.9771H147.313V16.144H141.105V17.6667H147.957V19.8922Z" fill="#020203"/>
<path d="M159.084 12.4544H153.052V14.3285H158.557V16.4954H153.052V19.9508H149.597V10.2289H159.084V12.4544Z" fill="#020203"/>
</svg>
